# xmcd CD database file
# Copyright 1993-1996 (C) Ti Kan
#
# Track frame offsets:
#    187
#    2372
#    12485
#    20250
#    33085
#    40587
#    55790
#    68210
#    84087
#    136262
#    166250
#    175392
#    187157
#    201005
#    214800
#
# Disc length: 3060 seconds
#
# Revision: 0
# Processed by: cddbd v1.4b41PL1 Copyright (c) Steve Scherf et al.
# Submitted via: MyCDplayer 2.1.4  (wjohn@fix.net)
#
DISCID=b70bf20f
DTITLE=Billie Holiday - Billie's Blues - Jazz Heritage 512947x
DYEAR=1900
DGENRE=
TTITLE0=Announcement by Leonard Feather
TTITLE1=Blue Moon
TTITLE2=All of Me
TTITLE3=My Man
TTITLE4=Them There Eyes
TTITLE5=I Cried for You
TTITLE6=What a Little Moonlight Can Do
TTITLE7=I Cover the Waterfront
TTITLE8=Billie's Blues
TTITLE9=Lover Come Back to Me
TTITLE10=Blue Turning Grey Over You
TTITLE11=Be Fair with Me Baby
TTITLE12=Rocky Mountain Blues
TTITLE13=Detour Ahead
TTITLE14=Trav'lin' Light
EXTD=
EXTT0=
EXTT1=
EXTT2=
EXTT3=
EXTT4=
EXTT5=
EXTT6=
EXTT7=
EXTT8=
EXTT9=
EXTT10=
EXTT11=
EXTT12=
EXTT13=
EXTT14=
PLAYORDER=
